<mxfile host="app.diagrams.net" modified="2021-10-28T02:28:40.536Z" agent="5.0 (Windows NT 10.0; WOW64) AppleWebKit/537.36 (KHTML, like Gecko) Chrome/69.0.3947.100 Safari/537.36" etag="R22zagHVkIaMDWtz5Y3A" version="15.5.9" type="github">
  <diagram id="obGKas4CIWTkcoB3YOjj" name="Page-1">
    <mxGraphModel dx="1973" dy="1029" grid="1" gridSize="10" guides="1" tooltips="1" connect="1" arrows="1" fold="1" page="1" pageScale="1" pageWidth="1200" pageHeight="550" math="0" shadow="0">
      <root>
        <mxCell id="0" />
        <mxCell id="1" parent="0" />
        <mxCell id="1pey4tPGvgQZIOhasEPy-72" value="" style="rounded=1;whiteSpace=wrap;html=1;fillColor=#d5e8d4;strokeColor=#82b366;" parent="1" vertex="1">
          <mxGeometry x="640" y="200" width="250" height="130" as="geometry" />
        </mxCell>
        <mxCell id="1pey4tPGvgQZIOhasEPy-9" style="edgeStyle=orthogonalEdgeStyle;rounded=0;orthogonalLoop=1;jettySize=auto;html=1;exitX=1;exitY=0.5;exitDx=0;exitDy=0;entryX=0;entryY=0.5;entryDx=0;entryDy=0;" parent="1" source="1pey4tPGvgQZIOhasEPy-1" target="1pey4tPGvgQZIOhasEPy-7" edge="1">
          <mxGeometry relative="1" as="geometry">
            <Array as="points">
              <mxPoint x="100" y="265" />
              <mxPoint x="100" y="330" />
            </Array>
          </mxGeometry>
        </mxCell>
        <mxCell id="1pey4tPGvgQZIOhasEPy-10" style="edgeStyle=orthogonalEdgeStyle;rounded=0;orthogonalLoop=1;jettySize=auto;html=1;exitX=1;exitY=0.5;exitDx=0;exitDy=0;entryX=0;entryY=0.5;entryDx=0;entryDy=0;" parent="1" source="1pey4tPGvgQZIOhasEPy-1" target="1pey4tPGvgQZIOhasEPy-2" edge="1">
          <mxGeometry relative="1" as="geometry">
            <Array as="points">
              <mxPoint x="100" y="265" />
              <mxPoint x="100" y="195" />
            </Array>
          </mxGeometry>
        </mxCell>
        <mxCell id="1pey4tPGvgQZIOhasEPy-1" value="image" style="whiteSpace=wrap;html=1;aspect=fixed;" parent="1" vertex="1">
          <mxGeometry x="30" y="240" width="50" height="50" as="geometry" />
        </mxCell>
        <mxCell id="1pey4tPGvgQZIOhasEPy-11" style="edgeStyle=orthogonalEdgeStyle;rounded=0;orthogonalLoop=1;jettySize=auto;html=1;exitX=1;exitY=0.5;exitDx=0;exitDy=0;entryX=0;entryY=0.5;entryDx=0;entryDy=0;" parent="1" source="1pey4tPGvgQZIOhasEPy-2" target="1pey4tPGvgQZIOhasEPy-3" edge="1">
          <mxGeometry relative="1" as="geometry" />
        </mxCell>
        <mxCell id="1pey4tPGvgQZIOhasEPy-71" style="edgeStyle=orthogonalEdgeStyle;rounded=0;orthogonalLoop=1;jettySize=auto;html=1;exitX=0.5;exitY=0;exitDx=0;exitDy=0;entryX=0.5;entryY=0;entryDx=0;entryDy=0;" parent="1" source="1pey4tPGvgQZIOhasEPy-2" target="1pey4tPGvgQZIOhasEPy-38" edge="1">
          <mxGeometry relative="1" as="geometry">
            <Array as="points">
              <mxPoint x="155" y="130" />
              <mxPoint x="854" y="130" />
            </Array>
          </mxGeometry>
        </mxCell>
        <mxCell id="1pey4tPGvgQZIOhasEPy-2" value="block1" style="rounded=0;whiteSpace=wrap;html=1;fillColor=#ffcc99;strokeColor=#36393d;" parent="1" vertex="1">
          <mxGeometry x="130" y="180" width="50" height="30" as="geometry" />
        </mxCell>
        <mxCell id="1pey4tPGvgQZIOhasEPy-12" style="edgeStyle=orthogonalEdgeStyle;rounded=0;orthogonalLoop=1;jettySize=auto;html=1;exitX=1;exitY=0.5;exitDx=0;exitDy=0;entryX=0;entryY=0.5;entryDx=0;entryDy=0;" parent="1" source="1pey4tPGvgQZIOhasEPy-3" target="1pey4tPGvgQZIOhasEPy-5" edge="1">
          <mxGeometry relative="1" as="geometry" />
        </mxCell>
        <mxCell id="1pey4tPGvgQZIOhasEPy-70" style="edgeStyle=orthogonalEdgeStyle;rounded=0;orthogonalLoop=1;jettySize=auto;html=1;exitX=0.5;exitY=0;exitDx=0;exitDy=0;entryX=0.5;entryY=0;entryDx=0;entryDy=0;" parent="1" source="1pey4tPGvgQZIOhasEPy-3" target="1pey4tPGvgQZIOhasEPy-35" edge="1">
          <mxGeometry relative="1" as="geometry">
            <Array as="points">
              <mxPoint x="225" y="140" />
              <mxPoint x="794" y="140" />
            </Array>
          </mxGeometry>
        </mxCell>
        <mxCell id="1pey4tPGvgQZIOhasEPy-3" value="&lt;font face=&quot;helvetica&quot;&gt;block2&lt;/font&gt;" style="rounded=0;whiteSpace=wrap;html=1;fillColor=#ffcc99;strokeColor=#36393d;" parent="1" vertex="1">
          <mxGeometry x="200" y="180" width="50" height="30" as="geometry" />
        </mxCell>
        <mxCell id="1pey4tPGvgQZIOhasEPy-14" style="edgeStyle=orthogonalEdgeStyle;rounded=0;orthogonalLoop=1;jettySize=auto;html=1;exitX=1;exitY=0.5;exitDx=0;exitDy=0;entryX=0;entryY=0.5;entryDx=0;entryDy=0;" parent="1" source="1pey4tPGvgQZIOhasEPy-4" target="1pey4tPGvgQZIOhasEPy-6" edge="1">
          <mxGeometry relative="1" as="geometry" />
        </mxCell>
        <mxCell id="1pey4tPGvgQZIOhasEPy-16" style="edgeStyle=orthogonalEdgeStyle;rounded=0;orthogonalLoop=1;jettySize=auto;html=1;exitX=0.5;exitY=1;exitDx=0;exitDy=0;entryX=0.5;entryY=0;entryDx=0;entryDy=0;dashed=1;" parent="1" source="1pey4tPGvgQZIOhasEPy-4" target="1pey4tPGvgQZIOhasEPy-7" edge="1">
          <mxGeometry relative="1" as="geometry" />
        </mxCell>
        <mxCell id="1pey4tPGvgQZIOhasEPy-31" style="edgeStyle=orthogonalEdgeStyle;rounded=0;orthogonalLoop=1;jettySize=auto;html=1;exitX=0.5;exitY=0;exitDx=0;exitDy=0;entryX=0.5;entryY=0;entryDx=0;entryDy=0;" parent="1" source="1pey4tPGvgQZIOhasEPy-4" target="1pey4tPGvgQZIOhasEPy-28" edge="1">
          <mxGeometry relative="1" as="geometry" />
        </mxCell>
        <mxCell id="1pey4tPGvgQZIOhasEPy-4" value="block4" style="rounded=0;whiteSpace=wrap;html=1;fillColor=#ffcc99;strokeColor=#36393d;" parent="1" vertex="1">
          <mxGeometry x="340" y="180" width="50" height="30" as="geometry" />
        </mxCell>
        <mxCell id="1pey4tPGvgQZIOhasEPy-13" style="edgeStyle=orthogonalEdgeStyle;rounded=0;orthogonalLoop=1;jettySize=auto;html=1;exitX=1;exitY=0.5;exitDx=0;exitDy=0;entryX=0;entryY=0.5;entryDx=0;entryDy=0;" parent="1" source="1pey4tPGvgQZIOhasEPy-5" target="1pey4tPGvgQZIOhasEPy-4" edge="1">
          <mxGeometry relative="1" as="geometry" />
        </mxCell>
        <mxCell id="1pey4tPGvgQZIOhasEPy-15" style="edgeStyle=orthogonalEdgeStyle;rounded=0;orthogonalLoop=1;jettySize=auto;html=1;exitX=0.5;exitY=1;exitDx=0;exitDy=0;entryX=0.031;entryY=0;entryDx=0;entryDy=0;entryPerimeter=0;dashed=1;" parent="1" source="1pey4tPGvgQZIOhasEPy-5" target="1pey4tPGvgQZIOhasEPy-7" edge="1">
          <mxGeometry relative="1" as="geometry" />
        </mxCell>
        <mxCell id="1pey4tPGvgQZIOhasEPy-69" style="edgeStyle=orthogonalEdgeStyle;rounded=0;orthogonalLoop=1;jettySize=auto;html=1;exitX=0.5;exitY=0;exitDx=0;exitDy=0;entryX=0.5;entryY=0;entryDx=0;entryDy=0;" parent="1" source="1pey4tPGvgQZIOhasEPy-5" target="1pey4tPGvgQZIOhasEPy-33" edge="1">
          <mxGeometry relative="1" as="geometry">
            <Array as="points">
              <mxPoint x="295" y="150" />
              <mxPoint x="734" y="150" />
            </Array>
          </mxGeometry>
        </mxCell>
        <mxCell id="1pey4tPGvgQZIOhasEPy-5" value="block3" style="rounded=0;whiteSpace=wrap;html=1;fillColor=#ffcc99;strokeColor=#36393d;" parent="1" vertex="1">
          <mxGeometry x="270" y="180" width="50" height="30" as="geometry" />
        </mxCell>
        <mxCell id="1pey4tPGvgQZIOhasEPy-17" style="edgeStyle=orthogonalEdgeStyle;rounded=0;orthogonalLoop=1;jettySize=auto;html=1;exitX=0.25;exitY=1;exitDx=0;exitDy=0;entryX=0.882;entryY=0.015;entryDx=0;entryDy=0;entryPerimeter=0;dashed=1;" parent="1" source="1pey4tPGvgQZIOhasEPy-6" target="1pey4tPGvgQZIOhasEPy-7" edge="1">
          <mxGeometry relative="1" as="geometry" />
        </mxCell>
        <mxCell id="1pey4tPGvgQZIOhasEPy-19" style="edgeStyle=orthogonalEdgeStyle;rounded=0;orthogonalLoop=1;jettySize=auto;html=1;entryX=0.5;entryY=0;entryDx=0;entryDy=0;exitX=1;exitY=0.5;exitDx=0;exitDy=0;" parent="1" source="1pey4tPGvgQZIOhasEPy-67" target="1pey4tPGvgQZIOhasEPy-18" edge="1">
          <mxGeometry relative="1" as="geometry">
            <mxPoint x="544" y="195" as="sourcePoint" />
          </mxGeometry>
        </mxCell>
        <mxCell id="1pey4tPGvgQZIOhasEPy-68" style="edgeStyle=orthogonalEdgeStyle;rounded=0;orthogonalLoop=1;jettySize=auto;html=1;exitX=1;exitY=0.5;exitDx=0;exitDy=0;entryX=0;entryY=0.5;entryDx=0;entryDy=0;" parent="1" source="1pey4tPGvgQZIOhasEPy-6" target="1pey4tPGvgQZIOhasEPy-67" edge="1">
          <mxGeometry relative="1" as="geometry" />
        </mxCell>
        <mxCell id="1pey4tPGvgQZIOhasEPy-6" value="block5" style="rounded=0;whiteSpace=wrap;html=1;fillColor=#ffcc99;strokeColor=#36393d;" parent="1" vertex="1">
          <mxGeometry x="410" y="180" width="50" height="30" as="geometry" />
        </mxCell>
        <mxCell id="1pey4tPGvgQZIOhasEPy-20" style="edgeStyle=orthogonalEdgeStyle;rounded=0;orthogonalLoop=1;jettySize=auto;html=1;exitX=1;exitY=0.5;exitDx=0;exitDy=0;entryX=0.5;entryY=1;entryDx=0;entryDy=0;" parent="1" source="1pey4tPGvgQZIOhasEPy-7" target="1pey4tPGvgQZIOhasEPy-18" edge="1">
          <mxGeometry relative="1" as="geometry" />
        </mxCell>
        <mxCell id="1pey4tPGvgQZIOhasEPy-7" value="depth estimator" style="rounded=0;whiteSpace=wrap;html=1;fillColor=#ffcccc;strokeColor=#36393d;" parent="1" vertex="1">
          <mxGeometry x="290" y="310" width="150" height="40" as="geometry" />
        </mxCell>
        <mxCell id="1pey4tPGvgQZIOhasEPy-25" style="edgeStyle=orthogonalEdgeStyle;rounded=0;orthogonalLoop=1;jettySize=auto;html=1;exitX=1;exitY=0.25;exitDx=0;exitDy=0;entryX=-0.041;entryY=0.634;entryDx=0;entryDy=0;entryPerimeter=0;" parent="1" source="1pey4tPGvgQZIOhasEPy-18" target="1pey4tPGvgQZIOhasEPy-21" edge="1">
          <mxGeometry relative="1" as="geometry" />
        </mxCell>
        <mxCell id="1pey4tPGvgQZIOhasEPy-27" style="edgeStyle=orthogonalEdgeStyle;rounded=0;orthogonalLoop=1;jettySize=auto;html=1;exitX=1;exitY=0.75;exitDx=0;exitDy=0;entryX=0;entryY=0.118;entryDx=0;entryDy=0;entryPerimeter=0;" parent="1" source="1pey4tPGvgQZIOhasEPy-18" target="1pey4tPGvgQZIOhasEPy-22" edge="1">
          <mxGeometry relative="1" as="geometry" />
        </mxCell>
        <mxCell id="1pey4tPGvgQZIOhasEPy-18" value="AFIM" style="rounded=1;whiteSpace=wrap;html=1;fillColor=#dae8fc;strokeColor=#6c8ebf;" parent="1" vertex="1">
          <mxGeometry x="534" y="220" width="50" height="60" as="geometry" />
        </mxCell>
        <mxCell id="1pey4tPGvgQZIOhasEPy-29" style="edgeStyle=orthogonalEdgeStyle;rounded=0;orthogonalLoop=1;jettySize=auto;html=1;exitX=0;exitY=0;exitDx=20;exitDy=35;exitPerimeter=0;" parent="1" source="1pey4tPGvgQZIOhasEPy-21" edge="1">
          <mxGeometry relative="1" as="geometry">
            <mxPoint x="654" y="231.27586206896558" as="targetPoint" />
          </mxGeometry>
        </mxCell>
        <mxCell id="1pey4tPGvgQZIOhasEPy-21" value="" style="shape=cube;whiteSpace=wrap;html=1;boundedLbl=1;backgroundOutline=1;darkOpacity=0.05;darkOpacity2=0.1;size=10;fillColor=#cce5ff;strokeColor=#36393d;" parent="1" vertex="1">
          <mxGeometry x="614" y="196" width="20" height="60" as="geometry" />
        </mxCell>
        <mxCell id="1pey4tPGvgQZIOhasEPy-50" style="edgeStyle=orthogonalEdgeStyle;rounded=0;orthogonalLoop=1;jettySize=auto;html=1;exitX=0;exitY=0;exitDx=20;exitDy=35;exitPerimeter=0;entryX=-0.037;entryY=0.477;entryDx=0;entryDy=0;entryPerimeter=0;" parent="1" source="1pey4tPGvgQZIOhasEPy-22" target="1pey4tPGvgQZIOhasEPy-41" edge="1">
          <mxGeometry relative="1" as="geometry" />
        </mxCell>
        <mxCell id="1pey4tPGvgQZIOhasEPy-22" value="" style="shape=cube;whiteSpace=wrap;html=1;boundedLbl=1;backgroundOutline=1;darkOpacity=0.05;darkOpacity2=0.1;size=10;fillColor=#cce5ff;strokeColor=#36393d;" parent="1" vertex="1">
          <mxGeometry x="614" y="258" width="20" height="60" as="geometry" />
        </mxCell>
        <mxCell id="1pey4tPGvgQZIOhasEPy-32" style="edgeStyle=orthogonalEdgeStyle;rounded=0;orthogonalLoop=1;jettySize=auto;html=1;exitX=1;exitY=0.5;exitDx=0;exitDy=0;" parent="1" source="1pey4tPGvgQZIOhasEPy-28" edge="1">
          <mxGeometry relative="1" as="geometry">
            <mxPoint x="714" y="231.9655172413793" as="targetPoint" />
          </mxGeometry>
        </mxCell>
        <mxCell id="1pey4tPGvgQZIOhasEPy-54" style="edgeStyle=orthogonalEdgeStyle;rounded=0;orthogonalLoop=1;jettySize=auto;html=1;exitX=0.5;exitY=1;exitDx=0;exitDy=0;entryX=0.5;entryY=0;entryDx=0;entryDy=0;" parent="1" source="1pey4tPGvgQZIOhasEPy-28" target="1pey4tPGvgQZIOhasEPy-41" edge="1">
          <mxGeometry relative="1" as="geometry" />
        </mxCell>
        <mxCell id="1pey4tPGvgQZIOhasEPy-28" value="" style="rounded=1;whiteSpace=wrap;html=1;fillColor=#fff2cc;strokeColor=#d6b656;" parent="1" vertex="1">
          <mxGeometry x="654" y="217" width="40" height="30" as="geometry" />
        </mxCell>
        <mxCell id="1pey4tPGvgQZIOhasEPy-36" style="edgeStyle=orthogonalEdgeStyle;rounded=0;orthogonalLoop=1;jettySize=auto;html=1;exitX=1;exitY=0.5;exitDx=0;exitDy=0;entryX=0;entryY=0.5;entryDx=0;entryDy=0;" parent="1" source="1pey4tPGvgQZIOhasEPy-33" target="1pey4tPGvgQZIOhasEPy-35" edge="1">
          <mxGeometry relative="1" as="geometry" />
        </mxCell>
        <mxCell id="1pey4tPGvgQZIOhasEPy-55" style="edgeStyle=orthogonalEdgeStyle;rounded=0;orthogonalLoop=1;jettySize=auto;html=1;exitX=0.5;exitY=1;exitDx=0;exitDy=0;entryX=0.5;entryY=0;entryDx=0;entryDy=0;" parent="1" source="1pey4tPGvgQZIOhasEPy-33" target="1pey4tPGvgQZIOhasEPy-42" edge="1">
          <mxGeometry relative="1" as="geometry" />
        </mxCell>
        <mxCell id="1pey4tPGvgQZIOhasEPy-33" value="" style="rounded=1;whiteSpace=wrap;html=1;fillColor=#fff2cc;strokeColor=#d6b656;" parent="1" vertex="1">
          <mxGeometry x="714" y="217" width="40" height="30" as="geometry" />
        </mxCell>
        <mxCell id="1pey4tPGvgQZIOhasEPy-39" style="edgeStyle=orthogonalEdgeStyle;rounded=0;orthogonalLoop=1;jettySize=auto;html=1;exitX=1;exitY=0.5;exitDx=0;exitDy=0;entryX=0;entryY=0.5;entryDx=0;entryDy=0;" parent="1" source="1pey4tPGvgQZIOhasEPy-35" target="1pey4tPGvgQZIOhasEPy-38" edge="1">
          <mxGeometry relative="1" as="geometry" />
        </mxCell>
        <mxCell id="1pey4tPGvgQZIOhasEPy-56" style="edgeStyle=orthogonalEdgeStyle;rounded=0;orthogonalLoop=1;jettySize=auto;html=1;exitX=0.5;exitY=1;exitDx=0;exitDy=0;entryX=0.5;entryY=0;entryDx=0;entryDy=0;" parent="1" source="1pey4tPGvgQZIOhasEPy-35" target="1pey4tPGvgQZIOhasEPy-44" edge="1">
          <mxGeometry relative="1" as="geometry" />
        </mxCell>
        <mxCell id="1pey4tPGvgQZIOhasEPy-35" value="" style="rounded=1;whiteSpace=wrap;html=1;fillColor=#fff2cc;strokeColor=#d6b656;" parent="1" vertex="1">
          <mxGeometry x="774" y="217" width="40" height="30" as="geometry" />
        </mxCell>
        <mxCell id="1pey4tPGvgQZIOhasEPy-57" style="edgeStyle=orthogonalEdgeStyle;rounded=0;orthogonalLoop=1;jettySize=auto;html=1;exitX=0.5;exitY=1;exitDx=0;exitDy=0;entryX=0.5;entryY=0;entryDx=0;entryDy=0;" parent="1" source="1pey4tPGvgQZIOhasEPy-38" target="1pey4tPGvgQZIOhasEPy-43" edge="1">
          <mxGeometry relative="1" as="geometry" />
        </mxCell>
        <mxCell id="1pey4tPGvgQZIOhasEPy-77" style="edgeStyle=orthogonalEdgeStyle;rounded=0;orthogonalLoop=1;jettySize=auto;html=1;exitX=1;exitY=0.5;exitDx=0;exitDy=0;" parent="1" source="1pey4tPGvgQZIOhasEPy-38" edge="1">
          <mxGeometry relative="1" as="geometry">
            <mxPoint x="910" y="231.66666666666674" as="targetPoint" />
          </mxGeometry>
        </mxCell>
        <mxCell id="1pey4tPGvgQZIOhasEPy-38" value="" style="rounded=1;whiteSpace=wrap;html=1;fillColor=#fff2cc;strokeColor=#d6b656;" parent="1" vertex="1">
          <mxGeometry x="834" y="217" width="40" height="30" as="geometry" />
        </mxCell>
        <mxCell id="1pey4tPGvgQZIOhasEPy-51" style="edgeStyle=orthogonalEdgeStyle;rounded=0;orthogonalLoop=1;jettySize=auto;html=1;exitX=1;exitY=0.5;exitDx=0;exitDy=0;entryX=-0.054;entryY=0.484;entryDx=0;entryDy=0;entryPerimeter=0;" parent="1" source="1pey4tPGvgQZIOhasEPy-41" target="1pey4tPGvgQZIOhasEPy-42" edge="1">
          <mxGeometry relative="1" as="geometry" />
        </mxCell>
        <mxCell id="1pey4tPGvgQZIOhasEPy-41" value="" style="rounded=1;whiteSpace=wrap;html=1;fillColor=#fff2cc;strokeColor=#d6b656;" parent="1" vertex="1">
          <mxGeometry x="654" y="278" width="40" height="30" as="geometry" />
        </mxCell>
        <mxCell id="1pey4tPGvgQZIOhasEPy-52" style="edgeStyle=orthogonalEdgeStyle;rounded=0;orthogonalLoop=1;jettySize=auto;html=1;exitX=1;exitY=0.5;exitDx=0;exitDy=0;entryX=0;entryY=0.5;entryDx=0;entryDy=0;" parent="1" source="1pey4tPGvgQZIOhasEPy-42" target="1pey4tPGvgQZIOhasEPy-44" edge="1">
          <mxGeometry relative="1" as="geometry" />
        </mxCell>
        <mxCell id="1pey4tPGvgQZIOhasEPy-42" value="" style="rounded=1;whiteSpace=wrap;html=1;fillColor=#fff2cc;strokeColor=#d6b656;" parent="1" vertex="1">
          <mxGeometry x="714" y="278" width="40" height="30" as="geometry" />
        </mxCell>
        <mxCell id="1pey4tPGvgQZIOhasEPy-79" style="edgeStyle=orthogonalEdgeStyle;rounded=0;orthogonalLoop=1;jettySize=auto;html=1;exitX=1;exitY=0.5;exitDx=0;exitDy=0;" parent="1" source="1pey4tPGvgQZIOhasEPy-43" edge="1">
          <mxGeometry relative="1" as="geometry">
            <mxPoint x="910" y="293" as="targetPoint" />
          </mxGeometry>
        </mxCell>
        <mxCell id="1pey4tPGvgQZIOhasEPy-43" value="" style="rounded=1;whiteSpace=wrap;html=1;fillColor=#fff2cc;strokeColor=#d6b656;" parent="1" vertex="1">
          <mxGeometry x="834" y="278" width="40" height="30" as="geometry" />
        </mxCell>
        <mxCell id="1pey4tPGvgQZIOhasEPy-53" style="edgeStyle=orthogonalEdgeStyle;rounded=0;orthogonalLoop=1;jettySize=auto;html=1;exitX=1;exitY=0.5;exitDx=0;exitDy=0;entryX=-0.042;entryY=0.5;entryDx=0;entryDy=0;entryPerimeter=0;" parent="1" source="1pey4tPGvgQZIOhasEPy-44" target="1pey4tPGvgQZIOhasEPy-43" edge="1">
          <mxGeometry relative="1" as="geometry" />
        </mxCell>
        <mxCell id="1pey4tPGvgQZIOhasEPy-44" value="" style="rounded=1;whiteSpace=wrap;html=1;fillColor=#fff2cc;strokeColor=#d6b656;" parent="1" vertex="1">
          <mxGeometry x="774" y="278" width="40" height="30" as="geometry" />
        </mxCell>
        <mxCell id="1pey4tPGvgQZIOhasEPy-82" style="edgeStyle=orthogonalEdgeStyle;rounded=0;orthogonalLoop=1;jettySize=auto;html=1;exitX=0.5;exitY=1;exitDx=0;exitDy=0;entryX=1;entryY=0.5;entryDx=0;entryDy=0;dashed=1;" parent="1" source="1pey4tPGvgQZIOhasEPy-58" target="1pey4tPGvgQZIOhasEPy-65" edge="1">
          <mxGeometry relative="1" as="geometry">
            <Array as="points">
              <mxPoint x="1007" y="292" />
            </Array>
          </mxGeometry>
        </mxCell>
        <mxCell id="1pey4tPGvgQZIOhasEPy-83" style="edgeStyle=orthogonalEdgeStyle;rounded=0;orthogonalLoop=1;jettySize=auto;html=1;exitX=0.5;exitY=0;exitDx=0;exitDy=0;dashed=1;" parent="1" source="1pey4tPGvgQZIOhasEPy-58" target="1pey4tPGvgQZIOhasEPy-78" edge="1">
          <mxGeometry relative="1" as="geometry">
            <Array as="points">
              <mxPoint x="1007" y="230" />
            </Array>
          </mxGeometry>
        </mxCell>
        <mxCell id="1pey4tPGvgQZIOhasEPy-58" value="GT" style="whiteSpace=wrap;html=1;aspect=fixed;" parent="1" vertex="1">
          <mxGeometry x="990" y="247" width="33" height="33" as="geometry" />
        </mxCell>
        <mxCell id="1pey4tPGvgQZIOhasEPy-63" style="edgeStyle=orthogonalEdgeStyle;rounded=0;orthogonalLoop=1;jettySize=auto;html=1;exitX=0;exitY=0.5;exitDx=0;exitDy=0;entryX=1.009;entryY=0.646;entryDx=0;entryDy=0;entryPerimeter=0;dashed=1;" parent="1" source="1pey4tPGvgQZIOhasEPy-62" target="1pey4tPGvgQZIOhasEPy-7" edge="1">
          <mxGeometry relative="1" as="geometry" />
        </mxCell>
        <mxCell id="1pey4tPGvgQZIOhasEPy-62" value="depth" style="whiteSpace=wrap;html=1;aspect=fixed;" parent="1" vertex="1">
          <mxGeometry x="574" y="320" width="33" height="33" as="geometry" />
        </mxCell>
        <mxCell id="1pey4tPGvgQZIOhasEPy-65" value="pred" style="whiteSpace=wrap;html=1;aspect=fixed;" parent="1" vertex="1">
          <mxGeometry x="911.5" y="272" width="40" height="40" as="geometry" />
        </mxCell>
        <mxCell id="1pey4tPGvgQZIOhasEPy-67" value="CCASPP" style="rounded=1;whiteSpace=wrap;html=1;fillColor=#eeeeee;strokeColor=#36393d;" parent="1" vertex="1">
          <mxGeometry x="480" y="180" width="50" height="30" as="geometry" />
        </mxCell>
        <mxCell id="1pey4tPGvgQZIOhasEPy-78" value="pred1" style="whiteSpace=wrap;html=1;aspect=fixed;" parent="1" vertex="1">
          <mxGeometry x="911.5" y="210" width="40" height="40" as="geometry" />
        </mxCell>
        <mxCell id="gqRf2WmWB96eepjZ8OcV-1" value="" style="rounded=1;whiteSpace=wrap;html=1;fillColor=#d5e8d4;strokeColor=#82b366;" vertex="1" parent="1">
          <mxGeometry x="630" y="546" width="250" height="110" as="geometry" />
        </mxCell>
        <mxCell id="gqRf2WmWB96eepjZ8OcV-2" style="edgeStyle=orthogonalEdgeStyle;rounded=0;orthogonalLoop=1;jettySize=auto;html=1;exitX=1;exitY=0.5;exitDx=0;exitDy=0;entryX=0;entryY=0.5;entryDx=0;entryDy=0;" edge="1" parent="1" source="gqRf2WmWB96eepjZ8OcV-4" target="gqRf2WmWB96eepjZ8OcV-24">
          <mxGeometry relative="1" as="geometry">
            <Array as="points">
              <mxPoint x="90" y="605" />
              <mxPoint x="90" y="665" />
            </Array>
          </mxGeometry>
        </mxCell>
        <mxCell id="gqRf2WmWB96eepjZ8OcV-3" style="edgeStyle=orthogonalEdgeStyle;rounded=0;orthogonalLoop=1;jettySize=auto;html=1;exitX=1;exitY=0.5;exitDx=0;exitDy=0;entryX=0;entryY=0.5;entryDx=0;entryDy=0;" edge="1" parent="1" source="gqRf2WmWB96eepjZ8OcV-4" target="gqRf2WmWB96eepjZ8OcV-7">
          <mxGeometry relative="1" as="geometry">
            <Array as="points">
              <mxPoint x="90" y="605" />
              <mxPoint x="90" y="535" />
            </Array>
          </mxGeometry>
        </mxCell>
        <mxCell id="gqRf2WmWB96eepjZ8OcV-4" value="image" style="whiteSpace=wrap;html=1;aspect=fixed;" vertex="1" parent="1">
          <mxGeometry x="20" y="580" width="50" height="50" as="geometry" />
        </mxCell>
        <mxCell id="gqRf2WmWB96eepjZ8OcV-5" style="edgeStyle=orthogonalEdgeStyle;rounded=0;orthogonalLoop=1;jettySize=auto;html=1;exitX=1;exitY=0.5;exitDx=0;exitDy=0;entryX=0;entryY=0.5;entryDx=0;entryDy=0;" edge="1" parent="1" source="gqRf2WmWB96eepjZ8OcV-7" target="gqRf2WmWB96eepjZ8OcV-10">
          <mxGeometry relative="1" as="geometry" />
        </mxCell>
        <mxCell id="gqRf2WmWB96eepjZ8OcV-70" style="edgeStyle=orthogonalEdgeStyle;rounded=0;orthogonalLoop=1;jettySize=auto;html=1;exitX=0.5;exitY=0;exitDx=0;exitDy=0;" edge="1" parent="1" source="gqRf2WmWB96eepjZ8OcV-7" target="gqRf2WmWB96eepjZ8OcV-43">
          <mxGeometry relative="1" as="geometry">
            <Array as="points">
              <mxPoint x="145" y="460" />
              <mxPoint x="843" y="460" />
            </Array>
          </mxGeometry>
        </mxCell>
        <mxCell id="gqRf2WmWB96eepjZ8OcV-7" value="block1" style="rounded=0;whiteSpace=wrap;html=1;fillColor=#ffcc99;strokeColor=#36393d;" vertex="1" parent="1">
          <mxGeometry x="120" y="520" width="50" height="30" as="geometry" />
        </mxCell>
        <mxCell id="gqRf2WmWB96eepjZ8OcV-8" style="edgeStyle=orthogonalEdgeStyle;rounded=0;orthogonalLoop=1;jettySize=auto;html=1;exitX=1;exitY=0.5;exitDx=0;exitDy=0;entryX=0;entryY=0.5;entryDx=0;entryDy=0;" edge="1" parent="1" source="gqRf2WmWB96eepjZ8OcV-10" target="gqRf2WmWB96eepjZ8OcV-18">
          <mxGeometry relative="1" as="geometry" />
        </mxCell>
        <mxCell id="gqRf2WmWB96eepjZ8OcV-9" style="edgeStyle=orthogonalEdgeStyle;rounded=0;orthogonalLoop=1;jettySize=auto;html=1;exitX=0.5;exitY=0;exitDx=0;exitDy=0;entryX=0.5;entryY=0;entryDx=0;entryDy=0;" edge="1" parent="1" source="gqRf2WmWB96eepjZ8OcV-10" target="gqRf2WmWB96eepjZ8OcV-40">
          <mxGeometry relative="1" as="geometry">
            <Array as="points">
              <mxPoint x="215" y="480" />
              <mxPoint x="784" y="480" />
            </Array>
          </mxGeometry>
        </mxCell>
        <mxCell id="gqRf2WmWB96eepjZ8OcV-10" value="&lt;font face=&quot;helvetica&quot;&gt;block2&lt;/font&gt;" style="rounded=0;whiteSpace=wrap;html=1;fillColor=#ffcc99;strokeColor=#36393d;" vertex="1" parent="1">
          <mxGeometry x="190" y="520" width="50" height="30" as="geometry" />
        </mxCell>
        <mxCell id="gqRf2WmWB96eepjZ8OcV-11" style="edgeStyle=orthogonalEdgeStyle;rounded=0;orthogonalLoop=1;jettySize=auto;html=1;exitX=1;exitY=0.5;exitDx=0;exitDy=0;entryX=0;entryY=0.5;entryDx=0;entryDy=0;" edge="1" parent="1" source="gqRf2WmWB96eepjZ8OcV-14" target="gqRf2WmWB96eepjZ8OcV-22">
          <mxGeometry relative="1" as="geometry" />
        </mxCell>
        <mxCell id="gqRf2WmWB96eepjZ8OcV-12" style="edgeStyle=orthogonalEdgeStyle;rounded=0;orthogonalLoop=1;jettySize=auto;html=1;exitX=0.5;exitY=1;exitDx=0;exitDy=0;entryX=0.5;entryY=0;entryDx=0;entryDy=0;dashed=1;" edge="1" parent="1" source="gqRf2WmWB96eepjZ8OcV-14" target="gqRf2WmWB96eepjZ8OcV-24">
          <mxGeometry relative="1" as="geometry" />
        </mxCell>
        <mxCell id="gqRf2WmWB96eepjZ8OcV-13" style="edgeStyle=orthogonalEdgeStyle;rounded=0;orthogonalLoop=1;jettySize=auto;html=1;exitX=0.5;exitY=0;exitDx=0;exitDy=0;entryX=0.5;entryY=0;entryDx=0;entryDy=0;" edge="1" parent="1" source="gqRf2WmWB96eepjZ8OcV-14" target="gqRf2WmWB96eepjZ8OcV-34">
          <mxGeometry relative="1" as="geometry" />
        </mxCell>
        <mxCell id="gqRf2WmWB96eepjZ8OcV-14" value="block4" style="rounded=0;whiteSpace=wrap;html=1;fillColor=#ffcc99;strokeColor=#36393d;" vertex="1" parent="1">
          <mxGeometry x="330" y="520" width="50" height="30" as="geometry" />
        </mxCell>
        <mxCell id="gqRf2WmWB96eepjZ8OcV-15" style="edgeStyle=orthogonalEdgeStyle;rounded=0;orthogonalLoop=1;jettySize=auto;html=1;exitX=1;exitY=0.5;exitDx=0;exitDy=0;entryX=0;entryY=0.5;entryDx=0;entryDy=0;" edge="1" parent="1" source="gqRf2WmWB96eepjZ8OcV-18" target="gqRf2WmWB96eepjZ8OcV-14">
          <mxGeometry relative="1" as="geometry" />
        </mxCell>
        <mxCell id="gqRf2WmWB96eepjZ8OcV-16" style="edgeStyle=orthogonalEdgeStyle;rounded=0;orthogonalLoop=1;jettySize=auto;html=1;exitX=0.5;exitY=1;exitDx=0;exitDy=0;entryX=0.031;entryY=0;entryDx=0;entryDy=0;entryPerimeter=0;dashed=1;" edge="1" parent="1" source="gqRf2WmWB96eepjZ8OcV-18" target="gqRf2WmWB96eepjZ8OcV-24">
          <mxGeometry relative="1" as="geometry" />
        </mxCell>
        <mxCell id="gqRf2WmWB96eepjZ8OcV-17" style="edgeStyle=orthogonalEdgeStyle;rounded=0;orthogonalLoop=1;jettySize=auto;html=1;exitX=0.5;exitY=0;exitDx=0;exitDy=0;entryX=0.5;entryY=0;entryDx=0;entryDy=0;" edge="1" parent="1" source="gqRf2WmWB96eepjZ8OcV-18" target="gqRf2WmWB96eepjZ8OcV-37">
          <mxGeometry relative="1" as="geometry">
            <Array as="points">
              <mxPoint x="285" y="490" />
              <mxPoint x="724" y="490" />
            </Array>
          </mxGeometry>
        </mxCell>
        <mxCell id="gqRf2WmWB96eepjZ8OcV-18" value="block3" style="rounded=0;whiteSpace=wrap;html=1;fillColor=#ffcc99;strokeColor=#36393d;" vertex="1" parent="1">
          <mxGeometry x="260" y="520" width="50" height="30" as="geometry" />
        </mxCell>
        <mxCell id="gqRf2WmWB96eepjZ8OcV-19" style="edgeStyle=orthogonalEdgeStyle;rounded=0;orthogonalLoop=1;jettySize=auto;html=1;exitX=0.25;exitY=1;exitDx=0;exitDy=0;entryX=0.882;entryY=0.015;entryDx=0;entryDy=0;entryPerimeter=0;dashed=1;" edge="1" parent="1" source="gqRf2WmWB96eepjZ8OcV-22" target="gqRf2WmWB96eepjZ8OcV-24">
          <mxGeometry relative="1" as="geometry" />
        </mxCell>
        <mxCell id="gqRf2WmWB96eepjZ8OcV-20" style="edgeStyle=orthogonalEdgeStyle;rounded=0;orthogonalLoop=1;jettySize=auto;html=1;entryX=0.5;entryY=0;entryDx=0;entryDy=0;exitX=1;exitY=0.5;exitDx=0;exitDy=0;" edge="1" parent="1" source="gqRf2WmWB96eepjZ8OcV-58" target="gqRf2WmWB96eepjZ8OcV-27">
          <mxGeometry relative="1" as="geometry">
            <mxPoint x="534" y="535" as="sourcePoint" />
          </mxGeometry>
        </mxCell>
        <mxCell id="gqRf2WmWB96eepjZ8OcV-21" style="edgeStyle=orthogonalEdgeStyle;rounded=0;orthogonalLoop=1;jettySize=auto;html=1;exitX=1;exitY=0.5;exitDx=0;exitDy=0;entryX=0;entryY=0.5;entryDx=0;entryDy=0;" edge="1" parent="1" source="gqRf2WmWB96eepjZ8OcV-22" target="gqRf2WmWB96eepjZ8OcV-58">
          <mxGeometry relative="1" as="geometry" />
        </mxCell>
        <mxCell id="gqRf2WmWB96eepjZ8OcV-22" value="block5" style="rounded=0;whiteSpace=wrap;html=1;fillColor=#ffcc99;strokeColor=#36393d;" vertex="1" parent="1">
          <mxGeometry x="400" y="520" width="50" height="30" as="geometry" />
        </mxCell>
        <mxCell id="gqRf2WmWB96eepjZ8OcV-23" style="edgeStyle=orthogonalEdgeStyle;rounded=0;orthogonalLoop=1;jettySize=auto;html=1;exitX=1;exitY=0.5;exitDx=0;exitDy=0;entryX=0.5;entryY=1;entryDx=0;entryDy=0;" edge="1" parent="1" source="gqRf2WmWB96eepjZ8OcV-24" target="gqRf2WmWB96eepjZ8OcV-27">
          <mxGeometry relative="1" as="geometry" />
        </mxCell>
        <mxCell id="gqRf2WmWB96eepjZ8OcV-24" value="depth estimator" style="rounded=0;whiteSpace=wrap;html=1;fillColor=#ffcccc;strokeColor=#36393d;" vertex="1" parent="1">
          <mxGeometry x="280" y="645" width="150" height="40" as="geometry" />
        </mxCell>
        <mxCell id="gqRf2WmWB96eepjZ8OcV-61" style="edgeStyle=orthogonalEdgeStyle;rounded=0;orthogonalLoop=1;jettySize=auto;html=1;exitX=1;exitY=0.5;exitDx=0;exitDy=0;" edge="1" parent="1" source="gqRf2WmWB96eepjZ8OcV-27">
          <mxGeometry relative="1" as="geometry">
            <mxPoint x="600" y="590" as="targetPoint" />
          </mxGeometry>
        </mxCell>
        <mxCell id="gqRf2WmWB96eepjZ8OcV-27" value="AFIM" style="rounded=1;whiteSpace=wrap;html=1;fillColor=#dae8fc;strokeColor=#6c8ebf;" vertex="1" parent="1">
          <mxGeometry x="524" y="560" width="50" height="60" as="geometry" />
        </mxCell>
        <mxCell id="gqRf2WmWB96eepjZ8OcV-66" style="edgeStyle=orthogonalEdgeStyle;rounded=0;orthogonalLoop=1;jettySize=auto;html=1;exitX=0;exitY=0;exitDx=20;exitDy=35;exitPerimeter=0;entryX=-0.039;entryY=0.492;entryDx=0;entryDy=0;entryPerimeter=0;" edge="1" parent="1" source="gqRf2WmWB96eepjZ8OcV-29" target="gqRf2WmWB96eepjZ8OcV-34">
          <mxGeometry relative="1" as="geometry" />
        </mxCell>
        <mxCell id="gqRf2WmWB96eepjZ8OcV-29" value="" style="shape=cube;whiteSpace=wrap;html=1;boundedLbl=1;backgroundOutline=1;darkOpacity=0.05;darkOpacity2=0.1;size=10;fillColor=#cce5ff;strokeColor=#36393d;" vertex="1" parent="1">
          <mxGeometry x="600" y="560" width="20" height="60" as="geometry" />
        </mxCell>
        <mxCell id="gqRf2WmWB96eepjZ8OcV-63" style="edgeStyle=orthogonalEdgeStyle;rounded=0;orthogonalLoop=1;jettySize=auto;html=1;exitX=1;exitY=0.5;exitDx=0;exitDy=0;entryX=0;entryY=0.5;entryDx=0;entryDy=0;" edge="1" parent="1" source="gqRf2WmWB96eepjZ8OcV-34" target="gqRf2WmWB96eepjZ8OcV-37">
          <mxGeometry relative="1" as="geometry" />
        </mxCell>
        <mxCell id="gqRf2WmWB96eepjZ8OcV-34" value="" style="rounded=1;whiteSpace=wrap;html=1;fillColor=#fff2cc;strokeColor=#d6b656;" vertex="1" parent="1">
          <mxGeometry x="640" y="581" width="40" height="30" as="geometry" />
        </mxCell>
        <mxCell id="gqRf2WmWB96eepjZ8OcV-35" style="edgeStyle=orthogonalEdgeStyle;rounded=0;orthogonalLoop=1;jettySize=auto;html=1;exitX=1;exitY=0.5;exitDx=0;exitDy=0;entryX=0;entryY=0.5;entryDx=0;entryDy=0;" edge="1" parent="1" source="gqRf2WmWB96eepjZ8OcV-37" target="gqRf2WmWB96eepjZ8OcV-40">
          <mxGeometry relative="1" as="geometry" />
        </mxCell>
        <mxCell id="gqRf2WmWB96eepjZ8OcV-37" value="" style="rounded=1;whiteSpace=wrap;html=1;fillColor=#fff2cc;strokeColor=#d6b656;" vertex="1" parent="1">
          <mxGeometry x="704" y="581" width="40" height="30" as="geometry" />
        </mxCell>
        <mxCell id="gqRf2WmWB96eepjZ8OcV-65" style="edgeStyle=orthogonalEdgeStyle;rounded=0;orthogonalLoop=1;jettySize=auto;html=1;exitX=1;exitY=0.5;exitDx=0;exitDy=0;" edge="1" parent="1" source="gqRf2WmWB96eepjZ8OcV-40">
          <mxGeometry relative="1" as="geometry">
            <mxPoint x="820" y="596" as="targetPoint" />
          </mxGeometry>
        </mxCell>
        <mxCell id="gqRf2WmWB96eepjZ8OcV-40" value="" style="rounded=1;whiteSpace=wrap;html=1;fillColor=#fff2cc;strokeColor=#d6b656;" vertex="1" parent="1">
          <mxGeometry x="764" y="581" width="40" height="30" as="geometry" />
        </mxCell>
        <mxCell id="gqRf2WmWB96eepjZ8OcV-68" style="edgeStyle=orthogonalEdgeStyle;rounded=0;orthogonalLoop=1;jettySize=auto;html=1;exitX=1;exitY=0.5;exitDx=0;exitDy=0;" edge="1" parent="1" source="gqRf2WmWB96eepjZ8OcV-43">
          <mxGeometry relative="1" as="geometry">
            <mxPoint x="900.0000000000002" y="596.1034482758621" as="targetPoint" />
          </mxGeometry>
        </mxCell>
        <mxCell id="gqRf2WmWB96eepjZ8OcV-43" value="" style="rounded=1;whiteSpace=wrap;html=1;fillColor=#fff2cc;strokeColor=#d6b656;" vertex="1" parent="1">
          <mxGeometry x="823" y="581" width="40" height="30" as="geometry" />
        </mxCell>
        <mxCell id="gqRf2WmWB96eepjZ8OcV-69" style="edgeStyle=orthogonalEdgeStyle;rounded=0;orthogonalLoop=1;jettySize=auto;html=1;exitX=0.5;exitY=0;exitDx=0;exitDy=0;entryX=0.5;entryY=1;entryDx=0;entryDy=0;dashed=1;" edge="1" parent="1" source="gqRf2WmWB96eepjZ8OcV-54" target="gqRf2WmWB96eepjZ8OcV-59">
          <mxGeometry relative="1" as="geometry" />
        </mxCell>
        <mxCell id="gqRf2WmWB96eepjZ8OcV-54" value="GT" style="whiteSpace=wrap;html=1;aspect=fixed;" vertex="1" parent="1">
          <mxGeometry x="905" y="650" width="33" height="33" as="geometry" />
        </mxCell>
        <mxCell id="gqRf2WmWB96eepjZ8OcV-55" style="edgeStyle=orthogonalEdgeStyle;rounded=0;orthogonalLoop=1;jettySize=auto;html=1;exitX=0;exitY=0.5;exitDx=0;exitDy=0;entryX=1.009;entryY=0.646;entryDx=0;entryDy=0;entryPerimeter=0;dashed=1;" edge="1" parent="1" source="gqRf2WmWB96eepjZ8OcV-56" target="gqRf2WmWB96eepjZ8OcV-24">
          <mxGeometry relative="1" as="geometry" />
        </mxCell>
        <mxCell id="gqRf2WmWB96eepjZ8OcV-56" value="depth" style="whiteSpace=wrap;html=1;aspect=fixed;" vertex="1" parent="1">
          <mxGeometry x="564" y="655" width="33" height="33" as="geometry" />
        </mxCell>
        <mxCell id="gqRf2WmWB96eepjZ8OcV-58" value="CCASPP" style="rounded=1;whiteSpace=wrap;html=1;fillColor=#eeeeee;strokeColor=#36393d;" vertex="1" parent="1">
          <mxGeometry x="470" y="520" width="50" height="30" as="geometry" />
        </mxCell>
        <mxCell id="gqRf2WmWB96eepjZ8OcV-59" value="pred1" style="whiteSpace=wrap;html=1;aspect=fixed;" vertex="1" parent="1">
          <mxGeometry x="901.5" y="573" width="40" height="40" as="geometry" />
        </mxCell>
        <mxCell id="gqRf2WmWB96eepjZ8OcV-71" style="edgeStyle=orthogonalEdgeStyle;rounded=0;orthogonalLoop=1;jettySize=auto;html=1;exitX=0.5;exitY=0;exitDx=0;exitDy=0;entryX=0.5;entryY=1;entryDx=0;entryDy=0;dashed=1;" edge="1" parent="1">
          <mxGeometry relative="1" as="geometry">
            <mxPoint x="659.29" y="650" as="sourcePoint" />
            <mxPoint x="659.29" y="613" as="targetPoint" />
          </mxGeometry>
        </mxCell>
        <mxCell id="gqRf2WmWB96eepjZ8OcV-72" style="edgeStyle=orthogonalEdgeStyle;rounded=0;orthogonalLoop=1;jettySize=auto;html=1;exitX=0.5;exitY=0;exitDx=0;exitDy=0;entryX=0.5;entryY=1;entryDx=0;entryDy=0;dashed=1;" edge="1" parent="1">
          <mxGeometry relative="1" as="geometry">
            <mxPoint x="723.7099999999997" y="648" as="sourcePoint" />
            <mxPoint x="723.7099999999997" y="611" as="targetPoint" />
          </mxGeometry>
        </mxCell>
        <mxCell id="gqRf2WmWB96eepjZ8OcV-73" style="edgeStyle=orthogonalEdgeStyle;rounded=0;orthogonalLoop=1;jettySize=auto;html=1;exitX=0.5;exitY=0;exitDx=0;exitDy=0;entryX=0.5;entryY=1;entryDx=0;entryDy=0;dashed=1;" edge="1" parent="1">
          <mxGeometry relative="1" as="geometry">
            <mxPoint x="783.7099999999997" y="648" as="sourcePoint" />
            <mxPoint x="783.7099999999997" y="611" as="targetPoint" />
          </mxGeometry>
        </mxCell>
        <mxCell id="gqRf2WmWB96eepjZ8OcV-74" style="edgeStyle=orthogonalEdgeStyle;rounded=0;orthogonalLoop=1;jettySize=auto;html=1;exitX=0.5;exitY=0;exitDx=0;exitDy=0;entryX=0.5;entryY=1;entryDx=0;entryDy=0;dashed=1;" edge="1" parent="1">
          <mxGeometry relative="1" as="geometry">
            <mxPoint x="842.7099999999997" y="650" as="sourcePoint" />
            <mxPoint x="842.7099999999997" y="613" as="targetPoint" />
          </mxGeometry>
        </mxCell>
      </root>
    </mxGraphModel>
  </diagram>
</mxfile>
